<?xml version="1.0" encoding="utf-8"?><svg viewBox="0 0 14 16" xmlns="http://www.w3.org/2000/svg" xmlns:xlink="http://www.w3.org/1999/xlink"><style>:root>svg{display:none}:root>svg:target{display:block}</style><svg viewBox="0 0 14 12" id="arrow-next" xmlns="http://www.w3.org/2000/svg"><path d="m8 11 5-5-5-5M1 11l5-5-5-5"/></svg><svg viewBox="0 0 14 12" id="arrow-prev" xmlns="http://www.w3.org/2000/svg"><path d="M6 11 1 6l5-5M13 11 8 6l5-5"/></svg><svg viewBox="0 0 11 16" id="place" xmlns="http://www.w3.org/2000/svg"><path d="M5.429 6.515a1.086 1.086 0 1 0 0-2.172 1.086 1.086 0 0 0 0 2.172Z"/><path d="M5.43 0C2.435 0 0 2.33 0 5.192c0 1.363.621 3.175 1.847 5.387.984 1.776 2.122 3.382 2.714 4.182a1.077 1.077 0 0 0 1.738 0c.591-.8 1.73-2.405 2.715-4.182 1.223-2.21 1.844-4.024 1.844-5.387C10.858 2.329 8.423 0 5.43 0Zm0 7.6a2.172 2.172 0 1 1 0-4.343 2.172 2.172 0 0 1 0 4.344Z"/></svg></svg>